<svg id="Warstwa_1" data-name="Warstwa 1" xmlns="http://www.w3.org/2000/svg" width="2560" height="1440" viewBox="0 0 2560 1440"><defs><style>.cls-1{fill:#fbfcfd;}.cls-2{fill:none;}</style></defs><title>bg-takagi</title><path class="cls-1" d="M694.58,307.59q5.32-34.84-1.1-63t-22-49.09a121,121,0,0,0-39-33.85,162,162,0,0,0-106.78-16.34,120.84,120.84,0,0,0-47.29,20.66q-21.09,15.28-35.66,40.27T422.92,266q-5.32,34.85.85,63.23t21.5,49.24a118.35,118.35,0,0,0,38.94,33.86A166.06,166.06,0,0,0,592.34,428.9a118.32,118.32,0,0,0,47.29-20.66q20.85-15.33,35.24-40.56T694.58,307.59Zm-59.43-9.09q-7.17,46.92-31.64,67.86T544.19,382q-34.85-5.33-51.71-32.6t-9.68-74.19q7.17-46.92,31.64-67.86t58.87-15.69q34.86,5.34,51.9,32.87T635.15,298.5Z"/><path class="cls-1" d="M1001.51,414.46q3.56-23.23-6.8-42.2t-35-31.41q22.37-5.72,35.12-18.86t15.84-33.25q5.94-38.87-20.71-61.92t-80.71-31.33q-21.9-3.35-42.31-4.41a172.83,172.83,0,0,0-36.36,1.52q-8.45,1.46-13.6,5.24t-6.45,12.27L777.12,428.59q-2.94,19.21,17.41,29.65a183.32,183.32,0,0,0,17.6,7.49q9.52,3.51,19.18,6.14t19.2,4.53q9.54,1.92,18,3.22,58.53,9,92.5-6.88T1001.51,414.46ZM942.88,403.2q-3.23,21-20.1,28.25t-44.14,3.07Q867,432.75,855.32,430a114.94,114.94,0,0,1-19.85-6.24l11.41-74.61,52.28,8q24.14,3.69,35.29,15.91T942.88,403.2ZM952,283.88q-2.67,17.42-16,25.44t-37.47,4.33l-45.13-6.91L864,237.49c4.89-.17,10.75,0,17.54.4s13.91,1.21,21.36,2.35Q957.39,248.58,952,283.88Z"/><path class="cls-1" d="M1279.64,498.85a46.28,46.28,0,0,0-2.77-10.25l-124.21-19,10.59-69.25L1258,414.83q20.55,3.15,24.25-21a37.89,37.89,0,0,0-.06-13,49.16,49.16,0,0,0-2.85-9.81l-109-16.68,9.71-63.45,108.13,16.55c6.25.95,11.49-.37,15.7-4s6.91-9.3,8.1-17.05a44.73,44.73,0,0,0,.19-13.23,40.52,40.52,0,0,0-2.59-10l-147.89-22.63q-14.3-2.19-23.82,4.81t-11.72,21.3l-32.13,210q-2.19,14.29,4.78,24.05T1120,512.61l135.38,20.71q20.55,3.15,24.25-21A42.07,42.07,0,0,0,1279.64,498.85Z"/><path class="cls-1" d="M1623.34,334q1.77-11.62-5.08-19.07t-18.93-9.3a70.68,70.68,0,0,0-13.39-.68,39.51,39.51,0,0,0-13,2.59q-10.07,14.93-19.28,28.83t-18.58,27.34q-9.37,13.42-19.26,27.23T1495,420l-2.24-.34q-2.31-5.85-7.94-21.34t-11.88-32.91q-6.26-17.42-11.85-33.13t-8.21-22.52q-5.41-15.47-12.34-22.47t-19.89-9q-11.62-1.77-20.07,2.65a37.7,37.7,0,0,0-13,10.58q5,18.15,13,40.62t17.67,45.92q9.67,23.43,19.87,46.48t19.58,42.32l-10.8,70.59q-2.19,14.31,3.56,21.58t22.72,9.88a87.24,87.24,0,0,0,15.62,1q7.58-.21,11.29-.56l14.43-94.28q28.18-31.8,48.37-56.15t33.33-41.54q13.16-17.21,19.81-27.84T1623.34,334Z"/><path class="cls-1" d="M683.33,950.4a46.58,46.58,0,0,0-5.33-9.19l-195.89,21.6q-9.89,1.08-14.83,7.77t-3.56,19.26a39.79,39.79,0,0,0,3.46,12.81,62.71,62.71,0,0,0,5.36,9.41l75.48-8.32,22.13,200.83q1.64,14.82,9.52,20.32t25,3.62a90.54,90.54,0,0,0,15.57-3.08q7.49-2.19,11-3.49L606.42,997.3l62-6.83q9.89-1.1,14.81-8t3.58-19A41.59,41.59,0,0,0,683.33,950.4Z"/><path class="cls-1" d="M960.45,1051q-14.78-32.93-29.1-63.86t-26-54.66q-4.74-9.93-18.28-13.22a84.56,84.56,0,0,0-29.28-1.54A87.56,87.56,0,0,0,835,923.45q-11.1,4.41-16.6,8.2-3.51,13.58-8.47,32.54t-10.06,40.67q-5.12,21.71-10.75,44.84t-10.3,44.79q-4.66,21.66-8.77,40.07T763.71,1166c-1,4.66-1.84,8.78-2.51,12.33a36.44,36.44,0,0,0-.41,10.73q1.25,11.23,10.45,16.36t24.48,3.44a51.69,51.69,0,0,0,12.65-2.76,84.6,84.6,0,0,0,9.32-4.21q2.29-12.08,5.94-30.67t6.74-35.76L931,1124.32l18.43,43.44q4.93,11.73,12.07,16.63t22.85,3.17a47.49,47.49,0,0,0,18.28-5.43,35.28,35.28,0,0,0,11.44-9.67q-11-25.17-24.91-56.83T960.45,1051ZM836.1,1088.4q3.31-15.37,7-31.47t7.19-31.71q3.51-15.62,6.69-30.07T863,969l2.25-.24,49.07,111Z"/><path class="cls-1" d="M1270.62,1078.24q-29.64-25.38-68.64-57.46l67.61-83.85a104.07,104.07,0,0,0,12.29-18.41,30.85,30.85,0,0,0,2.86-17.37q-1.29-11.67-11.88-19.15t-32.17-5.09l-94.75,130.49-10.2-92.55q-1.74-15.72-10-20.72t-24.46-3.22a91.66,91.66,0,0,0-15.35,3.06c-5.14,1.47-8.88,2.65-11.21,3.51l27.39,248.45q1.7,15.27,9.32,20.57t24.71,3.42a109.64,109.64,0,0,0,15.82-2.88,73.35,73.35,0,0,0,11.19-3.74l-12.83-116.36,99.75,88.13a155.64,155.64,0,0,0,19.28,14q9.75,6,22.78,4.54a32.3,32.3,0,0,0,21.33-10.76q8.28-9.33,7.1-24.21Q1300.24,1103.63,1270.62,1078.24Z"/><path class="cls-1" d="M1595.26,981.06q-14.77-32.92-29.09-63.87t-26-54.65q-4.74-9.93-18.28-13.22a84.5,84.5,0,0,0-29.27-1.55,87.48,87.48,0,0,0-22.79,5.7q-11.11,4.41-16.61,8.2-3.51,13.58-8.46,32.53t-10.07,40.67q-5.12,21.72-10.74,44.84t-10.3,44.79q-4.66,21.66-8.77,40.08t-6.31,31.39q-1.52,7-2.51,12.33a36.1,36.1,0,0,0-.41,10.73q1.25,11.23,10.44,16.35t24.48,3.44a52.4,52.4,0,0,0,12.66-2.75,84.43,84.43,0,0,0,9.31-4.21q2.31-12.08,5.94-30.67t6.75-35.76l100.64-11.1,18.43,43.45q4.92,11.73,12.06,16.63t22.86,3.16a47.38,47.38,0,0,0,18.27-5.42,35.32,35.32,0,0,0,11.44-9.68q-11-25.15-24.91-56.82T1595.26,981.06Zm-124.34,37.35q3.3-15.36,7-31.46t7.19-31.72q3.5-15.62,6.69-30.06t6-26.13l2.24-.25,49.07,111Z"/><path class="cls-1" d="M1952.76,942.56q-1.23-11.23-8.44-16.81t-18.44-4.33l-75.48,8.32q-9,1-14,7.45t-3.69,18.14a44.27,44.27,0,0,0,3.24,12.83,40.23,40.23,0,0,0,5.08,9l57.51-6.34,6.88,62.45q-5.49,3.79-16,7.23a118.1,118.1,0,0,1-23.57,4.87,110.16,110.16,0,0,1-36.33-1.68,73.25,73.25,0,0,1-30.24-14.4q-13.23-10.59-21.94-27.82t-11.44-41.94q-2.54-22.92,2.23-41.63a85.47,85.47,0,0,1,15.32-32.16A81.23,81.23,0,0,1,1810,863.94a99.48,99.48,0,0,1,35.67-10.52q24.26-2.68,41.6,2a157.68,157.68,0,0,1,29.87,11,36.73,36.73,0,0,0,10.09-11.57,26,26,0,0,0,3.21-16.27q-.95-8.54-8.1-15.71t-19.68-11.47a126.64,126.64,0,0,0-29.29-5.87,183.41,183.41,0,0,0-37,.67,174,174,0,0,0-56,15.5,135.86,135.86,0,0,0-43.51,32.31q-18,20.18-26.47,48.62t-4.55,63.93q4.11,37.3,18.32,63t36.13,41a127.48,127.48,0,0,0,50,20.63q28.1,5.31,60,1.8a189.25,189.25,0,0,0,22.32-3.82q11.07-2.6,21.42-5.77a151.62,151.62,0,0,0,18.77-7.08,71.06,71.06,0,0,0,13.89-8.12q9.72-6.52,13.78-13.12t2.81-17.81Z"/><path class="cls-1" d="M2104.37,808.07q-1.74-15.72-10-20.73t-24.46-3.21a88,88,0,0,0-15.12,3q-7.5,2.19-11.43,3.53l27.38,248.46q1.64,14.82,9.52,20.32t25,3.61a86.92,86.92,0,0,0,15.35-3q7.26-2.17,11.21-3.51Z"/><rect class="cls-2" width="2560" height="1440"/></svg>